#!OML:ASF C:\Vicon Data\Big\jianyuan-13\jianyuan\Session 1\Capture.male.ASF
:FULLY-SPECIFIED
:DEGREES
84
root -8.413200 17.604040 -18.775510 5.594127 11.216893 0.805479
lowerback -7.699736 1.509313 -0.742126 
upperback 3.437037 2.117952 -0.186458 
thorax 7.925180 1.001962 0.525704 
lowerneck -8.141067 -3.216406 2.725751 
upperneck 1.685498 -4.475695 -2.089922 
head 1.811263 -2.267286 -1.305106 
rclavicle 0.000000 0.000000 
rhumerus -25.639687 -4.630924 -88.684525 
rradius 36.782689 
rwrist 22.737748 
rhand -17.519218 -16.716409 
rfingers 0.000000 
rthumb 8.734329 -46.515709 
lclavicle 0.000000 0.000000 
lhumerus -45.288127 33.817150 64.324999 
lradius 24.358347 
lwrist -60.198027 
lhand -19.863087 -0.064137 
lfingers 0.000000 
lthumb 6.471988 29.817013 
rfemur -10.355268 2.658602 25.808852 
rtibia 26.280791 
rfoot -21.372437 -7.226034 
rtoes -24.818652 
lfemur -28.779055 -5.167398 -16.795781 
ltibia 34.261428 
lfoot -10.805057 3.027841 
ltoes -40.745630 
85
root -8.408059 17.604531 -18.722644 5.584020 11.221090 0.838361
lowerback -7.644588 1.521332 -0.764901 
upperback 3.430603 2.137731 -0.211036 
thorax 7.886117 1.011569 0.513614 
lowerneck -8.213796 -3.225085 2.686827 
upperneck 1.818624 -4.486645 -2.026352 
head 1.869648 -2.270866 -1.283238 
rclavicle 0.000000 0.000000 
rhumerus -25.498599 -4.293680 -88.879771 
rradius 37.031661 
rwrist 22.258780 
rhand -17.624888 -16.625985 
rfingers 0.000000 
rthumb 8.632309 -46.429505 
lclavicle 0.000000 0.000000 
lhumerus -45.538157 34.038690 63.983222 
lradius 24.287083 
lwrist -60.793104 
lhand -19.920606 -0.021154 
lfingers 0.000000 
lthumb 6.416501 29.861629 
rfemur -9.991136 2.602501 25.806487 
rtibia 25.988468 
rfoot -21.406667 -7.195999 
rtoes -24.768237 
lfemur -28.759165 -5.415320 -16.798676 
ltibia 32.720887 
lfoot -10.123233 3.159043 
ltoes -40.991455 
86
root -8.405327 17.606106 -18.665749 5.594868 11.153913 0.875434
lowerback -7.703305 1.553010 -0.839071 
upperback 3.446245 2.189977 -0.222363 
thorax 7.934220 1.033079 0.552858 
lowerneck -8.148150 -3.203882 2.698049 
upperneck 1.817957 -4.456324 -2.068443 
head 1.857414 -2.256625 -1.295727 
rclavicle 0.000000 0.000000 
rhumerus -25.381943 -4.078697 -88.987534 
rradius 37.294412 
rwrist 22.045747 
rhand -17.718407 -16.721753 
rfingers 0.000000 
rthumb 8.542053 -46.529003 
lclavicle 0.000000 0.000000 
lhumerus -45.712109 34.100246 63.865558 
lradius 24.333553 
lwrist -60.689599 
lhand -19.873356 -0.028065 
lfingers 0.000000 
lthumb 6.462053 29.853365 
rfemur -9.624106 2.701770 25.804361 
rtibia 25.666866 
rfoot -21.414828 -7.387503 
rtoes -24.955269 
lfemur -28.715894 -5.530165 -16.799749 
ltibia 31.182395 
lfoot -9.587673 3.331892 
ltoes -40.344540 
87
root -8.400956 17.607806 -18.609243 5.590427 11.091056 0.914930
lowerback -7.705258 1.570444 -0.874199 
upperback 3.441556 2.219805 -0.257665 
thorax 7.930096 1.046907 0.539643 
lowerneck -8.080571 -3.233822 2.675407 
upperneck 1.817388 -4.494688 -2.010511 
head 1.845528 -2.274119 -1.272854 
rclavicle 0.000000 0.000000 
rhumerus -25.278627 -3.869680 -89.146174 
rradius 37.585989 
rwrist 21.911559 
rhand -17.494620 -16.764282 
rfingers 0.000000 
rthumb 8.758010 -46.562535 
lclavicle 0.000000 0.000000 
lhumerus -45.874936 34.157700 63.679297 
lradius 24.331050 
lwrist -60.457503 
lhand -19.680286 -0.151475 
lfingers 0.000000 
lthumb 6.648485 29.724171 
rfemur -9.229691 2.807424 25.801516 
rtibia 25.343203 
rfoot -21.447033 -7.450093 
rtoes -24.908718 
lfemur -28.633419 -5.687865 -16.823543 
ltibia 29.680420 
lfoot -8.835802 3.684593 
ltoes -41.270928 
88
root -8.398377 17.604885 -18.553686 5.568557 10.998500 0.873558
lowerback -7.698908 1.633155 -0.840492 
upperback 3.455833 2.302936 -0.294280 
thorax 7.943623 1.090213 0.494215 
lowerneck -8.190080 -3.264675 2.904654 
upperneck 1.939151 -4.555483 -2.141507 
head 1.896606 -2.305836 -1.362129 
rclavicle 0.000000 0.000000 
rhumerus -25.156780 -3.645718 -89.384060 
rradius 37.876304 
rwrist 21.091768 
rhand -17.724166 -16.957722 
rfingers 0.000000 
rthumb 8.536574 -46.765112 
lclavicle 0.000000 0.000000 
lhumerus -45.881143 33.921917 63.700830 
lradius 24.421220 
lwrist -60.225347 
lhand -19.499511 -0.099064 
lfingers 0.000000 
lthumb 6.822939 29.770997 
rfemur -8.859327 2.817653 25.891462 
rtibia 25.006110 
rfoot -21.367765 -7.507823 
rtoes -25.261135 
lfemur -28.545824 -5.674423 -16.788058 
ltibia 28.201362 
lfoot -8.314725 3.978759 
ltoes -42.122775 
89
root -8.394274 17.603089 -18.495295 5.547428 10.932673 0.835339
lowerback -7.724901 1.634733 -0.855873 
upperback 3.460270 2.304358 -0.257710 
thorax 7.961328 1.088816 0.542468 
lowerneck -8.193114 -3.253724 2.693505 
upperneck 1.999512 -4.522347 -2.064257 
head 1.923526 -2.288711 -1.301074 
rclavicle 0.000000 0.000000 
rhumerus -25.067464 -3.278139 -89.518224 
rradius 38.213435 
rwrist 20.496680 
rhand -17.632211 -17.090191 
rfingers 0.000000 
rthumb 8.625240 -46.893969 
lclavicle 0.000000 0.000000 
lhumerus -46.114723 34.067822 63.522722 
lradius 24.369879 
lwrist -60.256232 
lhand -19.680912 -0.066672 
lfingers 0.000000 
lthumb 6.647830 29.808958 
rfemur -8.474833 2.731132 25.969357 
rtibia 24.691374 
rfoot -21.331699 -7.471000 
rtoes -25.477972 
lfemur -28.404543 -5.719435 -16.749166 
ltibia 26.727085 
lfoot -7.986612 4.328783 
ltoes -42.694801 
90
root -8.388072 17.604216 -18.437228 5.575361 10.885870 0.838636
lowerback -7.777099 1.649467 -0.894458 
upperback 3.447829 2.327808 -0.243978 
thorax 7.975912 1.097675 0.583409 
lowerneck -8.125839 -3.266756 2.725838 
upperneck 1.975353 -4.540255 -2.096442 
head 1.901680 -2.298170 -1.315246 
rclavicle 0.000000 0.000000 
rhumerus -24.970983 -3.097731 -89.620207 
rradius 38.484025 
rwrist 20.081195 
rhand -17.421218 -17.260606 
rfingers 0.000000 
rthumb 8.828925 -47.055903 
lclavicle 0.000000 0.000000 
lhumerus -46.335204 34.179477 63.320140 
lradius 24.334139 
lwrist -60.481924 
lhand -19.717851 -0.046037 
lfingers 0.000000 
lthumb 6.612178 29.830752 
rfemur -8.158070 2.649438 25.982094 
rtibia 24.423829 
rfoot -21.326610 -7.385818 
rtoes -25.498204 
lfemur -28.269500 -5.707367 -16.777370 
ltibia 25.199663 
lfoot -7.692000 4.607030 
ltoes -43.180386 
91
root -8.382453 17.603087 -18.377452 5.595451 10.858779 0.811097
lowerback -7.864942 1.641966 -0.875251 
upperback 3.459903 2.317670 -0.254757 
thorax 8.041401 1.093301 0.563029 
lowerneck -8.149156 -3.290167 2.519824 
upperneck 2.001395 -4.559312 -1.895595 
head 1.921920 -2.303766 -1.217445 
rclavicle 0.000000 0.000000 
rhumerus -24.847082 -2.746199 -89.852387 
rradius 38.802051 
rwrist 19.135764 
rhand -17.472659 -17.446507 
rfingers 0.000000 
rthumb 8.779231 -47.243944 
lclavicle 0.000000 0.000000 
lhumerus -46.565649 34.492892 62.964317 
lradius 24.328206 
lwrist -60.581444 
lhand -19.640165 -0.168609 
lfingers 0.000000 
lthumb 6.687232 29.705772 
rfemur -7.860968 2.644072 26.037231 
rtibia 24.224090 
rfoot -21.395074 -7.353984 
rtoes -25.475110 
lfemur -28.108644 -5.693973 -16.781313 
ltibia 23.663370 
lfoot -7.445698 4.884112 
ltoes -43.421942 
